<?xml version="1.0" encoding="utf-8" ?>
<svg xmlns="http://www.w3.org/2000/svg" xmlns:ev="http://www.w3.org/2001/xml-events" xmlns:xlink="http://www.w3.org/1999/xlink" baseProfile="full" height="786" style="font-family:monospace;font-size:13px" version="1.1" width="1024">
  <defs/>
  <rect fill="#FFF" height="786" stroke="#000" stroke-width="2" width="1024" x="0" y="0"/>
  <svg height="20.48" width="100.352" x="923.648" y="765.52">
    <defs/>
    <rect fill="#000" height="100%" width="100%" x="0" y="0"/>
    <text dominant-baseline="middle" fill="#FFF" style="font-size:10px" text-anchor="middle" x="50%" y="50%">made with 4CAT</text>
  </svg>
  <line stroke="#EEE" stroke-width="2" x1="100" x2="974" y1="50.0" y2="50.0"/>
  <line stroke="#EEE" stroke-width="2" x1="100" x2="974" y1="116.1" y2="116.1"/>
  <line stroke="#EEE" stroke-width="2" x1="100" x2="974" y1="182.2" y2="182.2"/>
  <line stroke="#EEE" stroke-width="2" x1="100" x2="974" y1="248.29999999999998" y2="248.29999999999998"/>
  <line stroke="#EEE" stroke-width="2" x1="100" x2="974" y1="314.4" y2="314.4"/>
  <line stroke="#EEE" stroke-width="2" x1="100" x2="974" y1="380.5" y2="380.5"/>
  <line stroke="#EEE" stroke-width="2" x1="100" x2="974" y1="446.59999999999997" y2="446.59999999999997"/>
  <line stroke="#EEE" stroke-width="2" x1="100" x2="974" y1="512.6999999999999" y2="512.6999999999999"/>
  <line stroke="#EEE" stroke-width="2" x1="100" x2="974" y1="578.8" y2="578.8"/>
  <line stroke="#EEE" stroke-width="2" x1="100" x2="974" y1="644.9" y2="644.9"/>
  <path d="M 103.361538 711.000000 L 103.361538 656.027000 C 103.361538 649.527000 103.361538 649.527000 109.861538 649.527000 L 157.369231 649.527000 C 163.869231 649.527000 163.869231 649.527000 163.869231 656.027000 L 163.869231 711.000000 Z" fill="#000"/>
  <path d="M 170.592308 711.000000 L 170.592308 689.738000 C 170.592308 683.238000 170.592308 683.238000 177.092308 683.238000 L 224.600000 683.238000 C 231.100000 683.238000 231.100000 683.238000 231.100000 689.738000 L 231.100000 711.000000 Z" fill="#000"/>
  <path d="M 237.823077 711.000000 L 237.823077 601.494500 C 237.823077 594.994500 237.823077 594.994500 244.323077 594.994500 L 291.830769 594.994500 C 298.330769 594.994500 298.330769 594.994500 298.330769 601.494500 L 298.330769 711.000000 Z" fill="#000"/>
  <path d="M 305.053846 711.000000 L 305.053846 693.704000 C 305.053846 687.204000 305.053846 687.204000 311.553846 687.204000 L 359.061538 687.204000 C 365.561538 687.204000 365.561538 687.204000 365.561538 693.704000 L 365.561538 711.000000 Z" fill="#000"/>
  <path d="M 372.284615 711.000000 L 372.284615 205.555500 C 372.284615 199.055500 372.284615 199.055500 378.784615 199.055500 L 426.292308 199.055500 C 432.792308 199.055500 432.792308 199.055500 432.792308 205.555500 L 432.792308 711.000000 Z" fill="#000"/>
  <path d="M 439.515385 711.000000 L 439.515385 641.154500 C 439.515385 634.654500 439.515385 634.654500 446.015385 634.654500 L 493.523077 634.654500 C 500.023077 634.654500 500.023077 634.654500 500.023077 641.154500 L 500.023077 711.000000 Z" fill="#000"/>
  <path d="M 506.746154 711.000000 L 506.746154 501.683500 C 506.746154 495.183500 506.746154 495.183500 513.246154 495.183500 L 560.753846 495.183500 C 567.253846 495.183500 567.253846 495.183500 567.253846 501.683500 L 567.253846 711.000000 Z" fill="#000"/>
  <path d="M 573.976923 711.000000 L 573.976923 573.732500 C 573.976923 567.232500 573.976923 567.232500 580.476923 567.232500 L 627.984615 567.232500 C 634.484615 567.232500 634.484615 567.232500 634.484615 573.732500 L 634.484615 711.000000 Z" fill="#000"/>
  <path d="M 641.207692 711.000000 L 641.207692 680.484000 C 641.207692 673.984000 641.207692 673.984000 647.707692 673.984000 L 695.215385 673.984000 C 701.715385 673.984000 701.715385 673.984000 701.715385 680.484000 L 701.715385 711.000000 Z" fill="#000"/>
  <path d="M 708.438462 711.000000 L 708.438462 623.307500 C 708.438462 616.807500 708.438462 616.807500 714.938462 616.807500 L 762.446154 616.807500 C 768.946154 616.807500 768.946154 616.807500 768.946154 623.307500 L 768.946154 711.000000 Z" fill="#000"/>
  <path d="M 775.669231 711.000000 L 775.669231 700.975000 C 775.669231 694.475000 775.669231 694.475000 782.169231 694.475000 L 829.676923 694.475000 C 836.176923 694.475000 836.176923 694.475000 836.176923 700.975000 L 836.176923 711.000000 Z" fill="#000"/>
  <path d="M 842.900000 711.000000 L 842.900000 570.427500 C 842.900000 563.927500 842.900000 563.927500 849.400000 563.927500 L 896.907692 563.927500 C 903.407692 563.927500 903.407692 563.927500 903.407692 570.427500 L 903.407692 711.000000 Z" fill="#000"/>
  <path d="M 910.130769 711.000000 L 910.130769 590.257500 C 910.130769 583.757500 910.130769 583.757500 916.630769 583.757500 L 964.138462 583.757500 C 970.638462 583.757500 970.638462 583.757500 970.638462 590.257500 L 970.638462 711.000000 Z" fill="#000"/>
  <line stroke="#000" stroke-width="2" x1="100" x2="974" y1="711" y2="711"/>
  <line stroke="#000" stroke-width="2" x1="100" x2="100" y1="50" y2="711"/>
  <line stroke="#000" stroke-width="2" x1="95" x2="100" y1="50.0" y2="50.0"/>
  <line stroke="#000" stroke-width="2" x1="95" x2="100" y1="116.1" y2="116.1"/>
  <line stroke="#000" stroke-width="2" x1="95" x2="100" y1="182.2" y2="182.2"/>
  <line stroke="#000" stroke-width="2" x1="95" x2="100" y1="248.29999999999998" y2="248.29999999999998"/>
  <line stroke="#000" stroke-width="2" x1="95" x2="100" y1="314.4" y2="314.4"/>
  <line stroke="#000" stroke-width="2" x1="95" x2="100" y1="380.5" y2="380.5"/>
  <line stroke="#000" stroke-width="2" x1="95" x2="100" y1="446.59999999999997" y2="446.59999999999997"/>
  <line stroke="#000" stroke-width="2" x1="95" x2="100" y1="512.6999999999999" y2="512.6999999999999"/>
  <line stroke="#000" stroke-width="2" x1="95" x2="100" y1="578.8" y2="578.8"/>
  <line stroke="#000" stroke-width="2" x1="95" x2="100" y1="644.9" y2="644.9"/>
  <line stroke="#000" stroke-width="2" x1="133.6153846153846" x2="133.6153846153846" y1="711" y2="716"/>
  <line stroke="#000" stroke-width="2" x1="200.84615384615384" x2="200.84615384615384" y1="711" y2="716"/>
  <line stroke="#000" stroke-width="2" x1="268.0769230769231" x2="268.0769230769231" y1="711" y2="716"/>
  <line stroke="#000" stroke-width="2" x1="335.30769230769226" x2="335.30769230769226" y1="711" y2="716"/>
  <line stroke="#000" stroke-width="2" x1="402.53846153846155" x2="402.53846153846155" y1="711" y2="716"/>
  <line stroke="#000" stroke-width="2" x1="469.7692307692307" x2="469.7692307692307" y1="711" y2="716"/>
  <line stroke="#000" stroke-width="2" x1="537.0" x2="537.0" y1="711" y2="716"/>
  <line stroke="#000" stroke-width="2" x1="604.2307692307692" x2="604.2307692307692" y1="711" y2="716"/>
  <line stroke="#000" stroke-width="2" x1="671.4615384615385" x2="671.4615384615385" y1="711" y2="716"/>
  <line stroke="#000" stroke-width="2" x1="738.6923076923076" x2="738.6923076923076" y1="711" y2="716"/>
  <line stroke="#000" stroke-width="2" x1="805.9230769230769" x2="805.9230769230769" y1="711" y2="716"/>
  <line stroke="#000" stroke-width="2" x1="873.1538461538461" x2="873.1538461538461" y1="711" y2="716"/>
  <line stroke="#000" stroke-width="2" x1="940.3846153846154" x2="940.3846153846154" y1="711" y2="716"/>
  <svg height="20.0" width="50.0" x="40.0" y="704.1733333333333">
    <defs/>
    <text dominant-baseline="middle" text-anchor="end" x="100%" y="50%">0</text>
  </svg>
  <svg height="20.0" width="50.0" x="40.0" y="638.0733333333333">
    <defs/>
    <text dominant-baseline="middle" text-anchor="end" x="100%" y="50%">200</text>
  </svg>
  <svg height="20.0" width="50.0" x="40.0" y="571.9733333333332">
    <defs/>
    <text dominant-baseline="middle" text-anchor="end" x="100%" y="50%">400</text>
  </svg>
  <svg height="20.0" width="50.0" x="40.0" y="505.8733333333334">
    <defs/>
    <text dominant-baseline="middle" text-anchor="end" x="100%" y="50%">600</text>
  </svg>
  <svg height="20.0" width="50.0" x="40.0" y="439.77333333333337">
    <defs/>
    <text dominant-baseline="middle" text-anchor="end" x="100%" y="50%">800</text>
  </svg>
  <svg height="20.0" width="50.0" x="40.0" y="373.67333333333335">
    <defs/>
    <text dominant-baseline="middle" text-anchor="end" x="100%" y="50%">1000</text>
  </svg>
  <svg height="20.0" width="50.0" x="40.0" y="307.5733333333334">
    <defs/>
    <text dominant-baseline="middle" text-anchor="end" x="100%" y="50%">1200</text>
  </svg>
  <svg height="20.0" width="50.0" x="40.0" y="241.47333333333341">
    <defs/>
    <text dominant-baseline="middle" text-anchor="end" x="100%" y="50%">1400</text>
  </svg>
  <svg height="20.0" width="50.0" x="40.0" y="175.3733333333334">
    <defs/>
    <text dominant-baseline="middle" text-anchor="end" x="100%" y="50%">1600</text>
  </svg>
  <svg height="20.0" width="50.0" x="40.0" y="109.27333333333335">
    <defs/>
    <text dominant-baseline="middle" text-anchor="end" x="100%" y="50%">1800</text>
  </svg>
  <svg height="20.0" width="50.0" x="40.0" y="43.17333333333333">
    <defs/>
    <text dominant-baseline="middle" text-anchor="end" x="100%" y="50%">2000</text>
  </svg>
  <svg height="75" overflow="visible" width="67.23076923076923" x="100.0" y="731">
    <defs/>
    <text dominant-baseline="middle" dy="0" text-anchor="middle" x="50%" y="0%">14 Nov</text>
  </svg>
  <svg height="75" overflow="visible" width="67.23076923076923" x="100.0" y="731">
    <defs/>
    <text dominant-baseline="middle" dy="15.36" text-anchor="middle" x="50%" y="0%">2022</text>
  </svg>
  <svg height="75" overflow="visible" width="67.23076923076923" x="167.23076923076923" y="731">
    <defs/>
    <text dominant-baseline="middle" dy="0" text-anchor="middle" x="50%" y="0%">15 Nov</text>
  </svg>
  <svg height="75" overflow="visible" width="67.23076923076923" x="167.23076923076923" y="731">
    <defs/>
    <text dominant-baseline="middle" dy="15.36" text-anchor="middle" x="50%" y="0%">2022</text>
  </svg>
  <svg height="75" overflow="visible" width="67.23076923076923" x="234.46153846153848" y="731">
    <defs/>
    <text dominant-baseline="middle" dy="0" text-anchor="middle" x="50%" y="0%">16 Nov</text>
  </svg>
  <svg height="75" overflow="visible" width="67.23076923076923" x="234.46153846153848" y="731">
    <defs/>
    <text dominant-baseline="middle" dy="15.36" text-anchor="middle" x="50%" y="0%">2022</text>
  </svg>
  <svg height="75" overflow="visible" width="67.23076923076923" x="301.6923076923076" y="731">
    <defs/>
    <text dominant-baseline="middle" dy="0" text-anchor="middle" x="50%" y="0%">17 Nov</text>
  </svg>
  <svg height="75" overflow="visible" width="67.23076923076923" x="301.6923076923076" y="731">
    <defs/>
    <text dominant-baseline="middle" dy="15.36" text-anchor="middle" x="50%" y="0%">2022</text>
  </svg>
  <svg height="75" overflow="visible" width="67.23076923076923" x="368.9230769230769" y="731">
    <defs/>
    <text dominant-baseline="middle" dy="0" text-anchor="middle" x="50%" y="0%">18 Nov</text>
  </svg>
  <svg height="75" overflow="visible" width="67.23076923076923" x="368.9230769230769" y="731">
    <defs/>
    <text dominant-baseline="middle" dy="15.36" text-anchor="middle" x="50%" y="0%">2022</text>
  </svg>
  <svg height="75" overflow="visible" width="67.23076923076923" x="436.1538461538461" y="731">
    <defs/>
    <text dominant-baseline="middle" dy="0" text-anchor="middle" x="50%" y="0%">19 Nov</text>
  </svg>
  <svg height="75" overflow="visible" width="67.23076923076923" x="436.1538461538461" y="731">
    <defs/>
    <text dominant-baseline="middle" dy="15.36" text-anchor="middle" x="50%" y="0%">2022</text>
  </svg>
  <svg height="75" overflow="visible" width="67.23076923076923" x="503.38461538461536" y="731">
    <defs/>
    <text dominant-baseline="middle" dy="0" text-anchor="middle" x="50%" y="0%">20 Nov</text>
  </svg>
  <svg height="75" overflow="visible" width="67.23076923076923" x="503.38461538461536" y="731">
    <defs/>
    <text dominant-baseline="middle" dy="15.36" text-anchor="middle" x="50%" y="0%">2022</text>
  </svg>
  <svg height="75" overflow="visible" width="67.23076923076923" x="570.6153846153845" y="731">
    <defs/>
    <text dominant-baseline="middle" dy="0" text-anchor="middle" x="50%" y="0%">21 Nov</text>
  </svg>
  <svg height="75" overflow="visible" width="67.23076923076923" x="570.6153846153845" y="731">
    <defs/>
    <text dominant-baseline="middle" dy="15.36" text-anchor="middle" x="50%" y="0%">2022</text>
  </svg>
  <svg height="75" overflow="visible" width="67.23076923076923" x="637.8461538461538" y="731">
    <defs/>
    <text dominant-baseline="middle" dy="0" text-anchor="middle" x="50%" y="0%">22 Nov</text>
  </svg>
  <svg height="75" overflow="visible" width="67.23076923076923" x="637.8461538461538" y="731">
    <defs/>
    <text dominant-baseline="middle" dy="15.36" text-anchor="middle" x="50%" y="0%">2022</text>
  </svg>
  <svg height="75" overflow="visible" width="67.23076923076923" x="705.0769230769231" y="731">
    <defs/>
    <text dominant-baseline="middle" dy="0" text-anchor="middle" x="50%" y="0%">23 Nov</text>
  </svg>
  <svg height="75" overflow="visible" width="67.23076923076923" x="705.0769230769231" y="731">
    <defs/>
    <text dominant-baseline="middle" dy="15.36" text-anchor="middle" x="50%" y="0%">2022</text>
  </svg>
  <svg height="75" overflow="visible" width="67.23076923076923" x="772.3076923076924" y="731">
    <defs/>
    <text dominant-baseline="middle" dy="0" text-anchor="middle" x="50%" y="0%">24 Nov</text>
  </svg>
  <svg height="75" overflow="visible" width="67.23076923076923" x="772.3076923076924" y="731">
    <defs/>
    <text dominant-baseline="middle" dy="15.36" text-anchor="middle" x="50%" y="0%">2022</text>
  </svg>
  <svg height="75" overflow="visible" width="67.23076923076923" x="839.5384615384617" y="731">
    <defs/>
    <text dominant-baseline="middle" dy="0" text-anchor="middle" x="50%" y="0%">25 Nov</text>
  </svg>
  <svg height="75" overflow="visible" width="67.23076923076923" x="839.5384615384617" y="731">
    <defs/>
    <text dominant-baseline="middle" dy="15.36" text-anchor="middle" x="50%" y="0%">2022</text>
  </svg>
  <svg height="75" overflow="visible" width="67.23076923076923" x="906.769230769231" y="731">
    <defs/>
    <text dominant-baseline="middle" dy="0" text-anchor="middle" x="50%" y="0%">26 Nov</text>
  </svg>
  <svg height="75" overflow="visible" width="67.23076923076923" x="906.769230769231" y="731">
    <defs/>
    <text dominant-baseline="middle" dy="15.36" text-anchor="middle" x="50%" y="0%">2022</text>
  </svg>
</svg>
