<?xml version="1.0" encoding="utf-8" ?>
<svg xmlns="http://www.w3.org/2000/svg" xmlns:ev="http://www.w3.org/2001/xml-events" xmlns:xlink="http://www.w3.org/1999/xlink" baseProfile="full" height="650.0000000000001" style="font-family:monospace;font-size:13px" version="1.1" width="1029.4228634059948">
  <defs/>
  <rect fill="#FFF" height="650.0000000000001" stroke="#000" stroke-width="2" width="1029.4228634059948" x="0" y="0"/>
  <svg height="20.588457268119896" width="100.88344061378749" x="928.5394227922073" y="629.4115427318802">
    <defs/>
    <rect fill="#000" height="100%" width="100%" x="0" y="0"/>
    <text dominant-baseline="middle" fill="#FFF" style="font-size:10px" text-anchor="middle" x="50%" y="50%">made with 4CAT</text>
  </svg>
  <line stroke="grey" stroke-width="0.25" x1="309.8076211353316" x2="50.0" y1="600.0000000000001" y2="450.0000000000001"/>
  <svg height="1.5em" overflow="visible" style="font-size:0.8em;" width="50" x="284.8076211353316" y="600.0000000000001">
    <defs/>
    <text baseline-shift="-0.5em" style="font-weight:bold;" text-anchor="middle" transform="rotate(-30.000000) skewX(30.000000)" x="25%" y="100%">2022</text>
    <text baseline-shift="-0.5em" text-anchor="middle" transform="rotate(-30.000000) skewX(30.000000)" x="25%" y="150%">Nov 14</text>
  </svg>
  <line stroke="grey" stroke-width="0.25" x1="353.10889132455355" x2="93.30127018922195" y1="575.0000000000001" y2="425.0000000000001"/>
  <svg height="1.5em" overflow="visible" style="font-size:0.8em;" width="50" x="328.10889132455355" y="575.0000000000001">
    <defs/>
    <text baseline-shift="-0.5em" style="font-weight:bold;" text-anchor="middle" transform="rotate(-30.000000) skewX(30.000000)" x="25%" y="100%">2022</text>
    <text baseline-shift="-0.5em" text-anchor="middle" transform="rotate(-30.000000) skewX(30.000000)" x="25%" y="150%">Nov 15</text>
  </svg>
  <line stroke="grey" stroke-width="0.25" x1="396.4101615137755" x2="136.6025403784439" y1="550.0000000000001" y2="400.0000000000001"/>
  <svg height="1.5em" overflow="visible" style="font-size:0.8em;" width="50" x="371.4101615137755" y="550.0000000000001">
    <defs/>
    <text baseline-shift="-0.5em" style="font-weight:bold;" text-anchor="middle" transform="rotate(-30.000000) skewX(30.000000)" x="25%" y="100%">2022</text>
    <text baseline-shift="-0.5em" text-anchor="middle" transform="rotate(-30.000000) skewX(30.000000)" x="25%" y="150%">Nov 16</text>
  </svg>
  <line stroke="grey" stroke-width="0.25" x1="439.71143170299746" x2="179.90381056766586" y1="525.0000000000001" y2="375.0000000000001"/>
  <svg height="1.5em" overflow="visible" style="font-size:0.8em;" width="50" x="414.71143170299746" y="525.0000000000001">
    <defs/>
    <text baseline-shift="-0.5em" style="font-weight:bold;" text-anchor="middle" transform="rotate(-30.000000) skewX(30.000000)" x="25%" y="100%">2022</text>
    <text baseline-shift="-0.5em" text-anchor="middle" transform="rotate(-30.000000) skewX(30.000000)" x="25%" y="150%">Nov 17</text>
  </svg>
  <line stroke="grey" stroke-width="0.25" x1="483.0127018922194" x2="223.2050807568878" y1="500.0000000000001" y2="350.0000000000001"/>
  <svg height="1.5em" overflow="visible" style="font-size:0.8em;" width="50" x="458.0127018922194" y="500.0000000000001">
    <defs/>
    <text baseline-shift="-0.5em" style="font-weight:bold;" text-anchor="middle" transform="rotate(-30.000000) skewX(30.000000)" x="25%" y="100%">2022</text>
    <text baseline-shift="-0.5em" text-anchor="middle" transform="rotate(-30.000000) skewX(30.000000)" x="25%" y="150%">Nov 18</text>
  </svg>
  <line stroke="grey" stroke-width="0.25" x1="526.3139720814413" x2="266.5063509461097" y1="475.0000000000001" y2="325.0000000000001"/>
  <svg height="1.5em" overflow="visible" style="font-size:0.8em;" width="50" x="501.3139720814413" y="475.0000000000001">
    <defs/>
    <text baseline-shift="-0.5em" style="font-weight:bold;" text-anchor="middle" transform="rotate(-30.000000) skewX(30.000000)" x="25%" y="100%">2022</text>
    <text baseline-shift="-0.5em" text-anchor="middle" transform="rotate(-30.000000) skewX(30.000000)" x="25%" y="150%">Nov 19</text>
  </svg>
  <line stroke="grey" stroke-width="0.25" x1="569.6152422706632" x2="309.8076211353316" y1="450.0000000000001" y2="300.0000000000001"/>
  <svg height="1.5em" overflow="visible" style="font-size:0.8em;" width="50" x="544.6152422706632" y="450.0000000000001">
    <defs/>
    <text baseline-shift="-0.5em" style="font-weight:bold;" text-anchor="middle" transform="rotate(-30.000000) skewX(30.000000)" x="25%" y="100%">2022</text>
    <text baseline-shift="-0.5em" text-anchor="middle" transform="rotate(-30.000000) skewX(30.000000)" x="25%" y="150%">Nov 20</text>
  </svg>
  <line stroke="grey" stroke-width="0.25" x1="612.9165124598851" x2="353.1088913245535" y1="425.0000000000001" y2="275.0000000000001"/>
  <svg height="1.5em" overflow="visible" style="font-size:0.8em;" width="50" x="587.9165124598851" y="425.0000000000001">
    <defs/>
    <text baseline-shift="-0.5em" style="font-weight:bold;" text-anchor="middle" transform="rotate(-30.000000) skewX(30.000000)" x="25%" y="100%">2022</text>
    <text baseline-shift="-0.5em" text-anchor="middle" transform="rotate(-30.000000) skewX(30.000000)" x="25%" y="150%">Nov 21</text>
  </svg>
  <line stroke="grey" stroke-width="0.25" x1="656.217782649107" x2="396.4101615137754" y1="400.0000000000001" y2="250.00000000000009"/>
  <svg height="1.5em" overflow="visible" style="font-size:0.8em;" width="50" x="631.217782649107" y="400.0000000000001">
    <defs/>
    <text baseline-shift="-0.5em" style="font-weight:bold;" text-anchor="middle" transform="rotate(-30.000000) skewX(30.000000)" x="25%" y="100%">2022</text>
    <text baseline-shift="-0.5em" text-anchor="middle" transform="rotate(-30.000000) skewX(30.000000)" x="25%" y="150%">Nov 22</text>
  </svg>
  <line stroke="grey" stroke-width="0.25" x1="699.5190528383289" x2="439.7114317029973" y1="375.0000000000001" y2="225.00000000000009"/>
  <svg height="1.5em" overflow="visible" style="font-size:0.8em;" width="50" x="674.5190528383289" y="375.0000000000001">
    <defs/>
    <text baseline-shift="-0.5em" style="font-weight:bold;" text-anchor="middle" transform="rotate(-30.000000) skewX(30.000000)" x="25%" y="100%">2022</text>
    <text baseline-shift="-0.5em" text-anchor="middle" transform="rotate(-30.000000) skewX(30.000000)" x="25%" y="150%">Nov 23</text>
  </svg>
  <line stroke="grey" stroke-width="0.25" x1="742.8203230275508" x2="483.0127018922192" y1="350.0000000000001" y2="200.00000000000009"/>
  <svg height="1.5em" overflow="visible" style="font-size:0.8em;" width="50" x="717.8203230275508" y="350.0000000000001">
    <defs/>
    <text baseline-shift="-0.5em" style="font-weight:bold;" text-anchor="middle" transform="rotate(-30.000000) skewX(30.000000)" x="25%" y="100%">2022</text>
    <text baseline-shift="-0.5em" text-anchor="middle" transform="rotate(-30.000000) skewX(30.000000)" x="25%" y="150%">Nov 24</text>
  </svg>
  <line stroke="grey" stroke-width="0.25" x1="786.1215932167727" x2="526.3139720814411" y1="325.0000000000001" y2="175.00000000000009"/>
  <svg height="1.5em" overflow="visible" style="font-size:0.8em;" width="50" x="761.1215932167727" y="325.0000000000001">
    <defs/>
    <text baseline-shift="-0.5em" style="font-weight:bold;" text-anchor="middle" transform="rotate(-30.000000) skewX(30.000000)" x="25%" y="100%">2022</text>
    <text baseline-shift="-0.5em" text-anchor="middle" transform="rotate(-30.000000) skewX(30.000000)" x="25%" y="150%">Nov 25</text>
  </svg>
  <line stroke="grey" stroke-width="0.25" x1="829.4228634059946" x2="569.615242270663" y1="300.0000000000001" y2="150.00000000000009"/>
  <svg height="1.5em" overflow="visible" style="font-size:0.8em;" width="50" x="804.4228634059946" y="300.0000000000001">
    <defs/>
    <text baseline-shift="-0.5em" style="font-weight:bold;" text-anchor="middle" transform="rotate(-30.000000) skewX(30.000000)" x="25%" y="100%">2022</text>
    <text baseline-shift="-0.5em" text-anchor="middle" transform="rotate(-30.000000) skewX(30.000000)" x="25%" y="150%">Nov 26</text>
  </svg>
  <path d="M 309.807621 600.000000 L 309.807621 583.491254 C 331.458256 570.991254 331.458256 583.564140 353.108891 571.064140 C 374.759526 558.564140 374.759526 527.077259 396.410162 514.577259 C 418.060797 502.077259 418.060797 531.486880 439.711432 518.986880 C 461.362067 506.486880 461.362067 400.000000 483.012702 387.500000 C 504.663337 375.000000 504.663337 469.788630 526.313972 457.288630 C 547.964607 444.788630 547.964607 396.027697 569.615242 383.527697 C 591.265877 371.027697 591.265877 392.893586 612.916512 380.393586 C 634.567148 367.893586 634.567148 402.988338 656.217783 390.488338 C 677.868418 377.988338 677.868418 357.871720 699.519053 345.371720 C 721.169688 332.871720 721.169688 358.673469 742.820323 346.173469 C 764.470958 333.673469 764.470958 291.581633 786.121593 279.081633 C 807.772228 266.581633 807.772228 271.064140 829.422863 258.564140 L 829.422863 300.000000 Z" fill="#eb010a"/>
  <text transform="skewY(-30.000000) translate(834.422863 771.754265)" x="0" y="0">news</text>
  <path d="M 179.903811 525.000000 L 179.903811 517.427885 C 201.554446 504.927885 201.554446 502.115385 223.205081 489.615385 C 244.855716 477.115385 244.855716 481.658654 266.506351 469.158654 C 288.156986 456.658654 288.156986 458.822115 309.807621 446.322115 C 331.458256 433.822115 331.458256 325.000000 353.108891 312.500000 C 374.759526 300.000000 374.759526 397.572115 396.410162 385.072115 C 418.060797 372.572115 418.060797 377.764423 439.711432 365.264423 C 461.362067 352.764423 461.362067 356.658654 483.012702 344.158654 C 504.663337 331.658654 504.663337 332.091346 526.313972 319.591346 C 547.964607 307.091346 547.964607 309.471154 569.615242 296.971154 C 591.265877 284.471154 591.265877 284.254808 612.916512 271.754808 C 634.567148 259.254808 634.567148 257.091346 656.217783 244.591346 C 677.868418 232.091346 677.868418 236.201923 699.519053 223.701923 L 699.519053 225.000000 Z" fill="#495dff"/>
  <text transform="skewY(-30.000000) translate(704.519053 621.754265)" x="0" y="0">worldnews</text>
  <line stroke="black" stroke-width="1" x1="179.9038105676658" x2="699.519052838329" y1="525.0000000000001" y2="225.00000000000006"/>
  <line stroke="black" stroke-width="1" x1="309.8076211353316" x2="829.4228634059948" y1="600.0000000000001" y2="300.00000000000006"/>
  <line stroke="black" stroke-width="2" x1="309.8076211353316" x2="829.4228634059948" y1="600.0000000000001" y2="300.00000000000006"/>
</svg>
